<mxfile host="app.diagrams.net" modified="2024-04-19T14:47:31.515Z" agent="Mozilla/5.0 (Windows NT 10.0; Win64; x64) AppleWebKit/537.36 (KHTML, like Gecko) Chrome/122.0.0.0 Safari/537.36 OPR/108.0.0.0" etag="KzrvGPbVkT2HednJechx" version="24.2.5" type="github">
  <diagram name="Página-1" id="GsmQLM7fggVLqDt_fxHi">
    <mxGraphModel dx="3861" dy="5459" grid="1" gridSize="10" guides="1" tooltips="1" connect="1" arrows="1" fold="1" page="1" pageScale="1" pageWidth="827" pageHeight="1169" math="0" shadow="0">
      <root>
        <mxCell id="0" />
        <mxCell id="1" parent="0" />
        <mxCell id="iJfQtfE7f7BiEkOG9yQa-18" value="modelo" style="rounded=0;whiteSpace=wrap;html=1;fillColor=#f8cecc;strokeColor=#b85450;" parent="1" vertex="1">
          <mxGeometry x="370" y="260" width="80" height="30" as="geometry" />
        </mxCell>
        <mxCell id="iJfQtfE7f7BiEkOG9yQa-19" value="" style="whiteSpace=wrap;html=1;aspect=fixed;fillColor=#fff2cc;strokeColor=#d6b656;" parent="1" vertex="1">
          <mxGeometry x="360" y="240" width="80" height="80" as="geometry" />
        </mxCell>
        <mxCell id="9gSC5VGaRZUEiJXOkDXJ-1" value="Text" style="text;html=1;strokeColor=none;fillColor=none;align=center;verticalAlign=middle;whiteSpace=wrap;rounded=0;" parent="1" vertex="1">
          <mxGeometry x="660" y="450" width="60" height="30" as="geometry" />
        </mxCell>
        <mxCell id="9gSC5VGaRZUEiJXOkDXJ-2" value="" style="shape=step;perimeter=stepPerimeter;whiteSpace=wrap;html=1;fixedSize=1;" parent="1" vertex="1">
          <mxGeometry x="870" y="580" width="120" height="80" as="geometry" />
        </mxCell>
        <mxCell id="9gSC5VGaRZUEiJXOkDXJ-3" value="" style="shape=or;whiteSpace=wrap;html=1;" parent="1" vertex="1">
          <mxGeometry x="720" y="570" width="60" height="80" as="geometry" />
        </mxCell>
        <mxCell id="9gSC5VGaRZUEiJXOkDXJ-4" value="" style="shape=hexagon;perimeter=hexagonPerimeter2;whiteSpace=wrap;html=1;fixedSize=1;" parent="1" vertex="1">
          <mxGeometry x="550" y="550" width="120" height="80" as="geometry" />
        </mxCell>
        <mxCell id="9gSC5VGaRZUEiJXOkDXJ-5" value="" style="shape=dataStorage;whiteSpace=wrap;html=1;fixedSize=1;" parent="1" vertex="1">
          <mxGeometry x="1000" y="740" width="100" height="80" as="geometry" />
        </mxCell>
        <mxCell id="9gSC5VGaRZUEiJXOkDXJ-6" value="" style="swimlane;startSize=0;" parent="1" vertex="1">
          <mxGeometry x="800" y="600" width="200" height="200" as="geometry" />
        </mxCell>
        <mxCell id="9gSC5VGaRZUEiJXOkDXJ-7" value="" style="shape=callout;whiteSpace=wrap;html=1;perimeter=calloutPerimeter;" parent="1" vertex="1">
          <mxGeometry x="800" y="530" width="120" height="80" as="geometry" />
        </mxCell>
        <mxCell id="9gSC5VGaRZUEiJXOkDXJ-8" value="" style="shape=callout;whiteSpace=wrap;html=1;perimeter=calloutPerimeter;" parent="1" vertex="1">
          <mxGeometry x="810" y="430" width="120" height="80" as="geometry" />
        </mxCell>
        <mxCell id="9gSC5VGaRZUEiJXOkDXJ-9" value="" style="swimlane;startSize=0;" parent="1" vertex="1">
          <mxGeometry x="360" y="270" width="200" height="200" as="geometry" />
        </mxCell>
        <mxCell id="9gSC5VGaRZUEiJXOkDXJ-10" value="" style="swimlane;startSize=0;" parent="1" vertex="1">
          <mxGeometry x="360" y="270" width="200" height="200" as="geometry" />
        </mxCell>
        <mxCell id="9gSC5VGaRZUEiJXOkDXJ-11" value="" style="swimlane;startSize=0;" parent="1" vertex="1">
          <mxGeometry x="360" y="270" width="200" height="200" as="geometry" />
        </mxCell>
        <mxCell id="9gSC5VGaRZUEiJXOkDXJ-12" value="" style="swimlane;startSize=0;" parent="1" vertex="1">
          <mxGeometry x="360" y="270" width="200" height="200" as="geometry" />
        </mxCell>
        <mxCell id="9gSC5VGaRZUEiJXOkDXJ-13" value="" style="swimlane;startSize=0;" parent="1" vertex="1">
          <mxGeometry x="360" y="270" width="200" height="200" as="geometry" />
        </mxCell>
        <mxCell id="9gSC5VGaRZUEiJXOkDXJ-14" value="" style="shape=dataStorage;whiteSpace=wrap;html=1;fixedSize=1;" parent="1" vertex="1">
          <mxGeometry x="-150" y="200" width="100" height="80" as="geometry" />
        </mxCell>
        <mxCell id="9gSC5VGaRZUEiJXOkDXJ-15" value="" style="shape=flexArrow;endArrow=classic;html=1;rounded=0;endWidth=7544;endSize=817.67;" parent="1" edge="1">
          <mxGeometry width="50" height="50" relative="1" as="geometry">
            <mxPoint x="-40" y="-1040" as="sourcePoint" />
            <mxPoint x="1960" y="180" as="targetPoint" />
          </mxGeometry>
        </mxCell>
        <object label="INSTITUTO" f="fg&#xa;gd" df="df&#xa;" id="E-lB4cvi65sXDCs0Uhgy-11">
          <mxCell style="swimlane;fontStyle=0;childLayout=stackLayout;horizontal=1;startSize=26;fillColor=none;horizontalStack=0;resizeParent=1;resizeParentMax=0;resizeLast=0;collapsible=1;marginBottom=0;whiteSpace=wrap;html=1;" vertex="1" parent="1">
            <mxGeometry x="-2210" y="-4660" width="550" height="104" as="geometry">
              <mxRectangle x="-1960" y="-4520" width="100" height="30" as="alternateBounds" />
            </mxGeometry>
          </mxCell>
        </object>
        <mxCell id="E-lB4cvi65sXDCs0Uhgy-12" value="+ field: type" style="text;strokeColor=none;fillColor=none;align=left;verticalAlign=top;spacingLeft=4;spacingRight=4;overflow=hidden;rotatable=0;points=[[0,0.5],[1,0.5]];portConstraint=eastwest;whiteSpace=wrap;html=1;" vertex="1" parent="E-lB4cvi65sXDCs0Uhgy-11">
          <mxGeometry y="26" width="550" height="26" as="geometry" />
        </mxCell>
        <mxCell id="E-lB4cvi65sXDCs0Uhgy-13" value="+ field: type" style="text;strokeColor=none;fillColor=none;align=left;verticalAlign=top;spacingLeft=4;spacingRight=4;overflow=hidden;rotatable=0;points=[[0,0.5],[1,0.5]];portConstraint=eastwest;whiteSpace=wrap;html=1;" vertex="1" parent="E-lB4cvi65sXDCs0Uhgy-11">
          <mxGeometry y="52" width="550" height="26" as="geometry" />
        </mxCell>
        <mxCell id="E-lB4cvi65sXDCs0Uhgy-14" value="+ field: type" style="text;strokeColor=none;fillColor=none;align=left;verticalAlign=top;spacingLeft=4;spacingRight=4;overflow=hidden;rotatable=0;points=[[0,0.5],[1,0.5]];portConstraint=eastwest;whiteSpace=wrap;html=1;" vertex="1" parent="E-lB4cvi65sXDCs0Uhgy-11">
          <mxGeometry y="78" width="550" height="26" as="geometry" />
        </mxCell>
        <mxCell id="E-lB4cvi65sXDCs0Uhgy-19" value="Persona" style="swimlane;fontStyle=0;childLayout=stackLayout;horizontal=1;startSize=26;fillColor=none;horizontalStack=0;resizeParent=1;resizeParentMax=0;resizeLast=0;collapsible=1;marginBottom=0;whiteSpace=wrap;html=1;strokeColor=default;align=center;verticalAlign=middle;fontFamily=Helvetica;fontSize=12;fontColor=default;" vertex="1" parent="1">
          <mxGeometry x="-2290" y="-4400" width="140" height="106" as="geometry" />
        </mxCell>
        <mxCell id="E-lB4cvi65sXDCs0Uhgy-20" value="+ field: type" style="text;strokeColor=none;fillColor=none;align=left;verticalAlign=top;spacingLeft=4;spacingRight=4;overflow=hidden;rotatable=0;points=[[0,0.5],[1,0.5]];portConstraint=eastwest;whiteSpace=wrap;html=1;fontFamily=Helvetica;fontSize=12;fontColor=default;fontStyle=0;" vertex="1" parent="E-lB4cvi65sXDCs0Uhgy-19">
          <mxGeometry y="26" width="140" height="26" as="geometry" />
        </mxCell>
        <mxCell id="E-lB4cvi65sXDCs0Uhgy-21" value="+ field: type" style="text;strokeColor=none;fillColor=none;align=left;verticalAlign=top;spacingLeft=4;spacingRight=4;overflow=hidden;rotatable=0;points=[[0,0.5],[1,0.5]];portConstraint=eastwest;whiteSpace=wrap;html=1;fontFamily=Helvetica;fontSize=12;fontColor=default;fontStyle=0;" vertex="1" parent="E-lB4cvi65sXDCs0Uhgy-19">
          <mxGeometry y="52" width="140" height="28" as="geometry" />
        </mxCell>
        <mxCell id="E-lB4cvi65sXDCs0Uhgy-22" value="+ field: type" style="text;strokeColor=none;fillColor=none;align=left;verticalAlign=top;spacingLeft=4;spacingRight=4;overflow=hidden;rotatable=0;points=[[0,0.5],[1,0.5]];portConstraint=eastwest;whiteSpace=wrap;html=1;fontFamily=Helvetica;fontSize=12;fontColor=default;fontStyle=0;" vertex="1" parent="E-lB4cvi65sXDCs0Uhgy-19">
          <mxGeometry y="80" width="140" height="26" as="geometry" />
        </mxCell>
        <mxCell id="E-lB4cvi65sXDCs0Uhgy-23" value="Ensenseñanza" style="swimlane;fontStyle=0;childLayout=stackLayout;horizontal=1;startSize=26;fillColor=none;horizontalStack=0;resizeParent=1;resizeParentMax=0;resizeLast=0;collapsible=1;marginBottom=0;whiteSpace=wrap;html=1;strokeColor=default;align=center;verticalAlign=middle;fontFamily=Helvetica;fontSize=12;fontColor=default;" vertex="1" parent="1">
          <mxGeometry x="-2000" y="-4400" width="140" height="104" as="geometry" />
        </mxCell>
        <mxCell id="E-lB4cvi65sXDCs0Uhgy-24" value="+ field: type" style="text;strokeColor=none;fillColor=none;align=left;verticalAlign=top;spacingLeft=4;spacingRight=4;overflow=hidden;rotatable=0;points=[[0,0.5],[1,0.5]];portConstraint=eastwest;whiteSpace=wrap;html=1;fontFamily=Helvetica;fontSize=12;fontColor=default;fontStyle=0;" vertex="1" parent="E-lB4cvi65sXDCs0Uhgy-23">
          <mxGeometry y="26" width="140" height="26" as="geometry" />
        </mxCell>
        <mxCell id="E-lB4cvi65sXDCs0Uhgy-25" value="+ field: type" style="text;strokeColor=none;fillColor=none;align=left;verticalAlign=top;spacingLeft=4;spacingRight=4;overflow=hidden;rotatable=0;points=[[0,0.5],[1,0.5]];portConstraint=eastwest;whiteSpace=wrap;html=1;fontFamily=Helvetica;fontSize=12;fontColor=default;fontStyle=0;" vertex="1" parent="E-lB4cvi65sXDCs0Uhgy-23">
          <mxGeometry y="52" width="140" height="26" as="geometry" />
        </mxCell>
        <mxCell id="E-lB4cvi65sXDCs0Uhgy-26" value="+ field: type" style="text;strokeColor=none;fillColor=none;align=left;verticalAlign=top;spacingLeft=4;spacingRight=4;overflow=hidden;rotatable=0;points=[[0,0.5],[1,0.5]];portConstraint=eastwest;whiteSpace=wrap;html=1;fontFamily=Helvetica;fontSize=12;fontColor=default;fontStyle=0;" vertex="1" parent="E-lB4cvi65sXDCs0Uhgy-23">
          <mxGeometry y="78" width="140" height="26" as="geometry" />
        </mxCell>
        <mxCell id="E-lB4cvi65sXDCs0Uhgy-27" value="Material" style="swimlane;fontStyle=0;childLayout=stackLayout;horizontal=1;startSize=26;fillColor=none;horizontalStack=0;resizeParent=1;resizeParentMax=0;resizeLast=0;collapsible=1;marginBottom=0;whiteSpace=wrap;html=1;strokeColor=default;align=center;verticalAlign=middle;fontFamily=Helvetica;fontSize=12;fontColor=default;" vertex="1" parent="1">
          <mxGeometry x="-1800" y="-4390" width="140" height="104" as="geometry" />
        </mxCell>
        <mxCell id="E-lB4cvi65sXDCs0Uhgy-28" value="+ field: type" style="text;strokeColor=none;fillColor=none;align=left;verticalAlign=top;spacingLeft=4;spacingRight=4;overflow=hidden;rotatable=0;points=[[0,0.5],[1,0.5]];portConstraint=eastwest;whiteSpace=wrap;html=1;fontFamily=Helvetica;fontSize=12;fontColor=default;fontStyle=0;" vertex="1" parent="E-lB4cvi65sXDCs0Uhgy-27">
          <mxGeometry y="26" width="140" height="26" as="geometry" />
        </mxCell>
        <mxCell id="E-lB4cvi65sXDCs0Uhgy-29" value="+ field: type" style="text;strokeColor=none;fillColor=none;align=left;verticalAlign=top;spacingLeft=4;spacingRight=4;overflow=hidden;rotatable=0;points=[[0,0.5],[1,0.5]];portConstraint=eastwest;whiteSpace=wrap;html=1;fontFamily=Helvetica;fontSize=12;fontColor=default;fontStyle=0;" vertex="1" parent="E-lB4cvi65sXDCs0Uhgy-27">
          <mxGeometry y="52" width="140" height="26" as="geometry" />
        </mxCell>
        <mxCell id="E-lB4cvi65sXDCs0Uhgy-30" value="+ field: type" style="text;strokeColor=none;fillColor=none;align=left;verticalAlign=top;spacingLeft=4;spacingRight=4;overflow=hidden;rotatable=0;points=[[0,0.5],[1,0.5]];portConstraint=eastwest;whiteSpace=wrap;html=1;fontFamily=Helvetica;fontSize=12;fontColor=default;fontStyle=0;" vertex="1" parent="E-lB4cvi65sXDCs0Uhgy-27">
          <mxGeometry y="78" width="140" height="26" as="geometry" />
        </mxCell>
      </root>
    </mxGraphModel>
  </diagram>
</mxfile>
